<svg xmlns="http://www.w3.org/2000/svg" viewBox="0 0 64 64">
  <defs>
    <linearGradient id="side" x2="0" y2="1">
      <stop stop-color="#8c7fac"/>
      <stop offset="1" stop-color="#3b3157"/>
    </linearGradient>
    <linearGradient id="top" x2=".2" y2="1">
      <stop stop-color="#c5bbdb"/>
      <stop offset="1" stop-color="#8c7fac"/>
    </linearGradient>
  </defs>
  <ellipse cx="33" cy="57" rx="27" ry="4" fill="#0b0a13" opacity=".5"/>
  <path d="M5 38v12c0 7 25 7 25 0V38" fill="#433758" stroke="#c1b6d5" stroke-width="2"/>
  <path d="M5 44c0 7 25 7 25 0M5 50c0 7 25 7 25 0" fill="none" stroke="#e4dbc2" stroke-width="2"/>
  <ellipse cx="17.5" cy="38" rx="12.5" ry="6" fill="#a79cc9" stroke="#e4dbc2" stroke-width="2"/>
  <path d="M35 41v10c0 7 24 7 24 0V41" fill="#795d59" stroke="#e6c799" stroke-width="2"/>
  <path d="M35 47c0 7 24 7 24 0M35 52c0 7 24 7 24 0" fill="none" stroke="#e6c799" stroke-width="2"/>
  <ellipse cx="47" cy="41" rx="12" ry="6" fill="#b58d55" stroke="#f1d7ab" stroke-width="2"/>
  <path d="M18 20v30c0 8 29 8 29 0V20" fill="url(#side)" stroke="#ded2e6" stroke-width="2.5"/>
  <path d="M18 28c0 8 29 8 29 0M18 35c0 8 29 8 29 0M18 42c0 8 29 8 29 0M18 49c0 8 29 8 29 0" fill="none" stroke="#e4dbc2" stroke-width="2.5"/>
  <ellipse cx="32.5" cy="20" rx="14.5" ry="8" fill="url(#top)" stroke="#f0e4d4" stroke-width="2.5"/>
  <path d="M32.5 14c-1.5 3-5.5 5-5.5 8 0 2 2 3 3.5 2l2-2 2 2c1.5 1 3.5 0 3.5-2 0-3-4-5-5.5-8z" fill="#302741"/>
  <path d="M30 25h5" stroke="#302741" stroke-width="1.5" stroke-linecap="round"/>
</svg>
