<svg xmlns="http://www.w3.org/2000/svg" viewBox="0 0 64 64">
  <defs>
    <radialGradient id="bowl" cx=".35" cy=".28">
      <stop stop-color="#6d4c86"/>
      <stop offset="1" stop-color="#281c37"/>
    </radialGradient>
    <radialGradient id="hub" cx=".3" cy=".25">
      <stop stop-color="#fff4cd"/>
      <stop offset="1" stop-color="#ba8852"/>
    </radialGradient>
  </defs>
  <circle cx="32" cy="32" r="29" fill="#1b1427" stroke="#d9b77a" stroke-width="2.5"/>
  <path d="M25.27 6.89A26 26 0 0 1 38.73 6.89L36.40 15.58A17 17 0 0 0 27.60 15.58Z" fill="#4f9276" stroke="#d9b77a" stroke-width=".8"/>
  <path d="M38.73 6.89A26 26 0 0 1 50.38 13.62L44.02 19.98A17 17 0 0 0 36.40 15.58Z" fill="#a3435c" stroke="#d9b77a" stroke-width=".8"/>
  <path d="M50.38 13.62A26 26 0 0 1 57.11 25.27L48.42 27.60A17 17 0 0 0 44.02 19.98Z" fill="#201928" stroke="#d9b77a" stroke-width=".8"/>
  <path d="M57.11 25.27A26 26 0 0 1 57.11 38.73L48.42 36.40A17 17 0 0 0 48.42 27.60Z" fill="#a3435c" stroke="#d9b77a" stroke-width=".8"/>
  <path d="M57.11 38.73A26 26 0 0 1 50.38 50.38L44.02 44.02A17 17 0 0 0 48.42 36.40Z" fill="#201928" stroke="#d9b77a" stroke-width=".8"/>
  <path d="M50.38 50.38A26 26 0 0 1 38.73 57.11L36.40 48.42A17 17 0 0 0 44.02 44.02Z" fill="#a3435c" stroke="#d9b77a" stroke-width=".8"/>
  <path d="M38.73 57.11A26 26 0 0 1 25.27 57.11L27.60 48.42A17 17 0 0 0 36.40 48.42Z" fill="#201928" stroke="#d9b77a" stroke-width=".8"/>
  <path d="M25.27 57.11A26 26 0 0 1 13.62 50.38L19.98 44.02A17 17 0 0 0 27.60 48.42Z" fill="#a3435c" stroke="#d9b77a" stroke-width=".8"/>
  <path d="M13.62 50.38A26 26 0 0 1 6.89 38.73L15.58 36.40A17 17 0 0 0 19.98 44.02Z" fill="#201928" stroke="#d9b77a" stroke-width=".8"/>
  <path d="M6.89 38.73A26 26 0 0 1 6.89 25.27L15.58 27.60A17 17 0 0 0 15.58 36.40Z" fill="#a3435c" stroke="#d9b77a" stroke-width=".8"/>
  <path d="M6.89 25.27A26 26 0 0 1 13.62 13.62L19.98 19.98A17 17 0 0 0 15.58 27.60Z" fill="#201928" stroke="#d9b77a" stroke-width=".8"/>
  <path d="M13.62 13.62A26 26 0 0 1 25.27 6.89L27.60 15.58A17 17 0 0 0 19.98 19.98Z" fill="#a3435c" stroke="#d9b77a" stroke-width=".8"/>
  <circle cx="32" cy="32" r="26" fill="none" stroke="#e7c684" stroke-width="1.5"/>
  <circle cx="32" cy="32" r="17" fill="url(#bowl)" stroke="#e7c684" stroke-width="1.8"/>
  <circle cx="32" cy="32" r="6" fill="url(#hub)" stroke="#fff1bc" stroke-width="1"/>
  <circle cx="32" cy="32" r="1.7" fill="#fff8d7"/>
  <circle cx="47" cy="46" r="2.8" fill="#fff8ee" stroke="#cebdb7" stroke-width=".8"/>
</svg>
