<svg xmlns="http://www.w3.org/2000/svg" viewBox="0 0 128 128">
  <defs>
    <radialGradient id="bg" cx=".5" cy=".5" r=".75">
      <stop offset="0" stop-color="#3a2a16"/>
      <stop offset="1" stop-color="#120c08"/>
    </radialGradient>
    <linearGradient id="gold" x1="0" y1="0" x2="1" y2="1">
      <stop offset="0" stop-color="#fff4c8"/>
      <stop offset=".45" stop-color="#f0c55e"/>
      <stop offset="1" stop-color="#9a6422"/>
    </linearGradient>
    <linearGradient id="shade" x1="1" y1="0" x2="0" y2="1">
      <stop offset="0" stop-color="#b8802e"/>
      <stop offset="1" stop-color="#6e4515"/>
    </linearGradient>
  </defs>
  <rect width="128" height="128" fill="url(#bg)"/>
  <g stroke="#f0c55e" stroke-opacity=".28" stroke-width="3" stroke-linecap="round">
    <path d="M64 6v14M64 108v14M6 64h14M108 64h14M23 23l10 10M95 95l10 10M105 23 95 33M33 95l-10 10"/>
    <path d="M40 10l5 13M88 10l-5 13M40 118l5-13M88 118l-5-13M10 40l13 5M10 88l13-5M118 40l-13 5M118 88l-13-5" stroke-opacity=".18" stroke-width="2"/>
  </g>
  <circle cx="64" cy="64" r="44" fill="none" stroke="url(#gold)" stroke-width="3"/>
  <circle cx="64" cy="64" r="38" fill="none" stroke="url(#gold)" stroke-opacity=".45" stroke-width="1.2"/>
  <path transform="translate(35 32) scale(.58)" d="M50 6C58 22 90 36 90 60c0 15-11 24-23 24-7 0-12-3-15-7 1 8 5 14 11 18H37c6-4 10-10 11-18-3 4-8 7-15 7-12 0-23-9-23-24C10 36 42 22 50 6Z" fill="url(#shade)"/>
  <path transform="translate(35 32) scale(.58)" d="M50 6C58 22 90 36 90 60c0 15-11 24-23 24-7 0-12-3-15-7 1 8 5 14 11 18H37c6-4 10-10 11-18-3 4-8 7-15 7-12 0-23-9-23-24C10 36 42 22 50 6Z" fill="url(#gold)" stroke="#fff1c2" stroke-width="3" stroke-linejoin="round" clip-path="none" opacity=".92"/>
  <path d="M64 38v24" stroke="#fff8dc" stroke-opacity=".7" stroke-width="2" stroke-linecap="round"/>
  <path d="M50 54c3-5 8-10 12-13" stroke="#fff" stroke-opacity=".8" stroke-width="2.5" stroke-linecap="round" fill="none"/>
  <path d="M56 26l3-6 5 4 5-4 3 6Z" fill="url(#gold)"/>
</svg>
